<svg xmlns="http://www.w3.org/2000/svg" xmlns:xlink="http://www.w3.org/1999/xlink" width="375" height="284" viewBox="0 0 375 284"><defs><linearGradient id="b" x1="100%" x2="0%" y1="21.322%" y2="78.678%"><stop offset="0%" stop-color="#FF6A3A"/><stop offset="100%" stop-color="#FF527B"/></linearGradient><linearGradient id="h" x1="22.319%" x2="99.127%" y1="28.497%" y2="70.858%"><stop offset="0%" stop-color="#FF3E83"/><stop offset="100%" stop-color="#FF9F2E"/></linearGradient><linearGradient id="l" x1="50%" x2="50%" y1="0%" y2="100%"><stop offset="0%" stop-color="#FFB443"/><stop offset="100%" stop-color="#FF5B64" stop-opacity="0"/></linearGradient><linearGradient id="p" x1="50%" x2="50%" y1="0%" y2="100%"><stop offset="0%" stop-color="#F8F8F8"/><stop offset="100%" stop-color="#EEE"/></linearGradient><linearGradient id="q" x1="50%" x2="50%" y1="0%" y2="100%"><stop offset="0%" stop-color="#CACBE8"/><stop offset="100%" stop-color="#EEE"/><stop offset="100%" stop-color="#CACBE8"/></linearGradient><linearGradient id="s" x1="97.791%" x2="7.729%" y1="26.944%" y2="71.879%"><stop offset="0%" stop-color="#FF9049"/><stop offset="100%" stop-color="#FF5E5E"/></linearGradient><linearGradient id="u" x1="50%" x2="50%" y1="0%" y2="100%"><stop offset="0%" stop-color="#FF6A3D"/><stop offset="100%" stop-color="#FF5B66"/></linearGradient><path id="a" d="M0 0v268c0 8.837 7.163 16 16 16h343c8.837 0 16-7.163 16-16V0z"/><path id="d" d="M0 14.054C0 6.292 6.292 0 14.054 0H220c7.762 0 14.054 6.292 14.054 14.054v128.108c0 7.762-6.292 14.054-14.054 14.054H14.054C6.292 156.216 0 149.924 0 142.162z"/><path id="f" d="M0 5.946A5.946 5.946 0 0 1 5.946 0H210.81a5.946 5.946 0 0 1 5.946 5.946v128.108A5.946 5.946 0 0 1 210.81 140H5.946A5.946 5.946 0 0 1 0 134.054z"/><path id="j" d="M0 5.946A5.946 5.946 0 0 1 5.946 0H210.81a5.946 5.946 0 0 1 5.946 5.946v128.108A5.946 5.946 0 0 1 210.81 140H5.946A5.946 5.946 0 0 1 0 134.054z"/><path id="n" d="M0 5.946A5.946 5.946 0 0 1 5.946 0h222.162a5.946 5.946 0 0 1 5.946 5.946V129.73a5.946 5.946 0 0 1-5.946 5.946H5.946A5.946 5.946 0 0 1 0 129.73z"/><path id="r" d="M0 2.162C0 .968.968 0 2.162 0h48.649c1.194 0 2.162.968 2.162 2.162v65.946a2.16 2.16 0 0 1-2.162 2.162H2.162A2.16 2.16 0 0 1 0 68.108z"/><filter id="e" width="151.3%" height="176.8%" x="-25.6%" y="-23%" filterUnits="objectBoundingBox"><feOffset dy="24" in="SourceAlpha" result="shadowOffsetOuter1"/><feGaussianBlur in="shadowOffsetOuter1" result="shadowBlurOuter1" stdDeviation="16"/><feColorMatrix in="shadowBlurOuter1" values="0 0 0 0 0 0 0 0 0 0 0 0 0 0 0 0 0 0 0.100000001 0"/></filter><filter id="g" width="155.4%" height="185.7%" x="-27.7%" y="-25.7%" filterUnits="objectBoundingBox"><feOffset dy="24" in="SourceAlpha" result="shadowOffsetOuter1"/><feGaussianBlur in="shadowOffsetOuter1" result="shadowBlurOuter1" stdDeviation="16"/><feColorMatrix in="shadowBlurOuter1" values="0 0 0 0 0 0 0 0 0 0 0 0 0 0 0 0 0 0 0.100000001 0"/></filter><filter id="k" width="155.4%" height="185.7%" x="-27.7%" y="-25.7%" filterUnits="objectBoundingBox"><feOffset dy="24" in="SourceAlpha" result="shadowOffsetOuter1"/><feGaussianBlur in="shadowOffsetOuter1" result="shadowBlurOuter1" stdDeviation="16"/><feColorMatrix in="shadowBlurOuter1" values="0 0 0 0 0 0 0 0 0 0 0 0 0 0 0 0 0 0 0.100000001 0"/></filter><filter id="o" width="151.3%" height="188.4%" x="-25.6%" y="-26.5%" filterUnits="objectBoundingBox"><feOffset dy="24" in="SourceAlpha" result="shadowOffsetOuter1"/><feGaussianBlur in="shadowOffsetOuter1" result="shadowBlurOuter1" stdDeviation="16"/><feColorMatrix in="shadowBlurOuter1" values="0 0 0 0 0 0 0 0 0 0 0 0 0 0 0 0 0 0 0.100000001 0"/></filter></defs><g fill="none" fill-rule="evenodd"><mask id="c" fill="#fff"><use xlink:href="#a"/></mask><path d="M0 0v268c0 8.837 7.163 16 16 16h343c8.837 0 16-7.163 16-16V0z"/><path fill="url(#b)" fill-rule="nonzero" d="M0 0v268c0 8.837 7.163 16 16 16h343c8.837 0 16-7.163 16-16V0z" mask="url(#c)"/><g mask="url(#c)"><g fill-rule="nonzero" transform="translate(-16 87.784)"><use xlink:href="#d" fill="#000" filter="url(#e)"/><use xlink:href="#d" fill="#242742"/></g><g transform="translate(-7.351 95.892)"><g fill-rule="nonzero"><use xlink:href="#f" fill="#000" filter="url(#g)"/><use xlink:href="#f" fill="url(#h)"/></g><mask id="m" fill="#fff"><use xlink:href="#j"/></mask><g fill-rule="nonzero"><use xlink:href="#j" fill="#000" filter="url(#k)"/><use xlink:href="#j" fill="url(#h)"/></g><circle cx="210.81" cy="131.892" r="85.405" fill="url(#l)" fill-rule="nonzero" mask="url(#m)"/><circle cx="73.754" cy="-18.678" r="85.405" fill="url(#l)" fill-rule="nonzero" mask="url(#m)" transform="rotate(-135 73.754 -18.678)"/></g><g fill-rule="nonzero" transform="translate(157.513 35.892)"><use xlink:href="#n" fill="#000" filter="url(#o)"/><use xlink:href="#n" fill="url(#p)"/><path fill="url(#q)" d="M0 5.946A5.946 5.946 0 0 1 5.946 0h45.946v135.676H5.946A5.946 5.946 0 0 1 0 129.73z"/><path fill="#BABBDB" d="M7.568 27.297c0-1.045.847-1.892 1.891-1.892h32.973a1.892 1.892 0 0 1 0 3.784H9.46a1.89 1.89 0 0 1-1.891-1.892Zm0 10.811c0-1.045.847-1.892 1.891-1.892h29.19a1.892 1.892 0 0 1 0 3.784H9.459a1.89 1.89 0 0 1-1.891-1.892m0 10.81c0-1.044.847-1.891 1.891-1.891h32.973a1.892 1.892 0 0 1 0 3.784H9.46a1.89 1.89 0 0 1-1.891-1.892Zm0 10.812c0-1.045.847-1.892 1.891-1.892h21.082a1.892 1.892 0 0 1 0 3.784H9.459a1.89 1.89 0 0 1-1.891-1.892"/><path fill="#242742" d="M0 5.946A5.946 5.946 0 0 1 5.946 0h222.162a5.946 5.946 0 0 1 5.946 5.946v10.81H0z"/><g transform="translate(8.649 4.865)"><circle cx="3.514" cy="3.514" r="3.514" fill="#FF6464"/><circle cx="15.406" cy="3.514" r="3.514" fill="#FF9255"/><circle cx="27.297" cy="3.514" r="3.514" fill="#6BD4A8"/></g></g><g transform="translate(220.757 24)"><path fill="#FFF" fill-rule="nonzero" d="M0 2.162C0 .968.968 0 2.162 0h48.649c1.194 0 2.162.968 2.162 2.162v65.946a2.16 2.16 0 0 1-2.162 2.162H2.162A2.16 2.16 0 0 1 0 68.108z"/><mask id="t" fill="#fff"><use xlink:href="#r"/></mask><use xlink:href="#r" fill="#FFF" fill-rule="nonzero"/><path fill="url(#s)" fill-rule="nonzero" d="M58.444 15.61a1.62 1.62 0 0 1 0 2.293l-13.662 13.67a6.02 6.02 0 0 1-8.512 0 2.774 2.774 0 0 0-3.925 0l-9.422 9.429a4.685 4.685 0 0 1-6.628 0 1.44 1.44 0 0 0-2.04 0L-3.178 58.444A1.622 1.622 0 1 1-5.47 56.15l17.43-17.441a4.685 4.685 0 0 1 6.629 0 1.44 1.44 0 0 0 2.04 0l9.422-9.428a6.02 6.02 0 0 1 8.513 0 2.774 2.774 0 0 0 3.924 0l13.663-13.67a1.62 1.62 0 0 1 2.293-.001" mask="url(#t)"/><path fill="#FFF" fill-rule="nonzero" d="M26.487 81.081c0-1.194.968-2.162 2.162-2.162h64.865c1.194 0 2.162.968 2.162 2.162v77.838a2.16 2.16 0 0 1-2.162 2.162H28.649a2.16 2.16 0 0 1-2.162-2.162z"/><path fill="url(#u)" d="M25.135 42.703c9.702 0 17.568-7.866 17.568-17.568S34.837 7.568 25.135 7.568 7.568 15.433 7.568 25.135s7.865 17.568 17.567 17.568m0 7.567c13.882 0 25.135-11.253 25.135-25.135S39.017 0 25.135 0 0 11.253 0 25.135 11.253 50.27 25.135 50.27" transform="translate(36.217 94.595)"/><path fill="#242742" fill-rule="nonzero" d="M52.222 117.145q0 1.842.954 2.914.955 1.064 2.602 1.064 1.529 0 2.39-1.09.87-1.089.87-2.719h-.634q0 .93-.515 1.478a1.7 1.7 0 0 1-1.284.55q-.819 0-1.216-.55-.397-.557-.397-1.63 0-1.224.397-1.757.405-.54 1.2-.54.852 0 1.326.7.473.701.473 2.51l.076.337q0 2.678-1.174 3.8-1.175 1.124-3.32 1.116h-.38v2.145h.44q3.445-.034 5.261-1.867 1.825-1.841 1.825-4.957v-.44q0-2.803-1.259-4.054-1.258-1.258-3.252-1.258-2.001 0-3.192 1.157c-1.191 1.157-1.191 1.802-1.191 3.091m14.764 8.26h2.61v-12.297h-2.442l-5.464 7.872v1.858h9.265v-2.103h-2.669l-.439.042h-3.514l2.61-4.088h.085v5.186l-.042.296z"/></g></g></g></svg>